<svg width="136" height="32" viewBox="0 0 136 32" fill="none" xmlns="http://www.w3.org/2000/svg">
<path d="M85.0924 28.4114C84.9247 28.5914 84.6217 28.6811 84.1843 28.6811H83.4129V26.9875H83.7545C83.9663 26.9875 84.1237 27.0378 84.2252 27.1322C84.3271 27.2271 84.3859 27.4239 84.4014 27.7213H84.5503V26.1536H84.4014C84.3915 26.3707 84.3549 26.5276 84.2872 26.6291C84.2388 26.715 84.1594 26.7813 84.0645 26.8146C83.964 26.8395 83.8611 26.8508 83.7573 26.8484H83.4157V25.2629L83.4162 25.2624H84.2219C84.5785 25.2624 84.8326 25.3254 84.9862 25.4579C85.1399 25.5894 85.2385 25.8064 85.2883 26.1052H85.4311L85.3663 25.1177H82.1436V25.2629H82.7449V28.6816H82.1436V28.8206H85.5021L85.5392 27.5827H85.394C85.3625 27.9557 85.2611 28.2338 85.0924 28.4114Z" fill="black"/>
<path d="M52.7696 27.1731C52.67 26.9992 52.5234 26.8583 52.3473 26.7676C52.1138 26.6676 51.8681 26.599 51.6172 26.5633C51.2963 26.5041 51.0755 26.4242 50.9543 26.3242C50.8402 26.2344 50.773 26.0958 50.773 25.9483C50.7805 25.7703 50.859 25.603 50.9905 25.4856C51.1357 25.339 51.3382 25.2643 51.5998 25.2643C52.0734 25.2643 52.4027 25.5631 52.5883 26.1593H52.7203L52.7024 25.1638L52.7034 25.1633H52.5901C52.5418 25.2497 52.4821 25.3291 52.4116 25.3987C52.1786 25.2178 51.8944 25.1191 51.6017 25.1177C51.2564 25.1177 50.9816 25.2347 50.7805 25.4607C50.586 25.6702 50.478 25.9479 50.478 26.2368C50.477 26.4416 50.5376 26.6413 50.6518 26.809C50.7533 26.9692 50.898 27.0951 51.0685 27.1717C51.2945 27.259 51.5289 27.321 51.7685 27.3558C52.0715 27.4075 52.2909 27.5029 52.4267 27.6414C52.5605 27.7758 52.6343 27.9604 52.6301 28.1521C52.632 28.3875 52.522 28.6097 52.3355 28.7478C52.1547 28.8995 51.9273 28.9822 51.6933 28.9822C51.4537 28.9803 51.2231 28.8906 51.0431 28.729C50.8453 28.5599 50.6913 28.3057 50.5809 27.9679H50.4611V29.0452H50.5621L50.8247 28.8042C51.1122 29.0245 51.4011 29.1344 51.6905 29.1344C52.0259 29.142 52.3506 29.0057 52.5831 28.7586C52.8222 28.5096 52.9523 28.1714 52.9425 27.8218C52.9458 27.594 52.8866 27.3685 52.7696 27.1731Z" fill="black"/>
<path d="M59.0854 25.1224H58.9994L57.6272 28.8981H57.1118V29.0428H58.4742V28.8981H57.778L58.1627 27.8463H59.3565L59.7224 28.8995H59.115V29.0447H60.9049V28.9H60.3999L59.0854 25.1224ZM58.2144 27.6997L58.7659 26.1644H58.7763L59.3067 27.6997H58.2144Z" fill="black"/>
<path d="M56.3221 28.6153C56.1577 28.8004 55.8547 28.8944 55.4215 28.8944H54.6577V27.142H54.9964C55.205 27.1449 55.3609 27.1947 55.4624 27.2919C55.5644 27.3896 55.6226 27.5935 55.6386 27.9026H55.7856V26.28H55.6386C55.6287 26.5036 55.5911 26.6671 55.5244 26.7714C55.476 26.8616 55.3976 26.9302 55.3032 26.9649C55.2036 26.9903 55.1016 27.0025 54.9997 27.0006H54.6605V25.3536L54.6614 25.354H55.4605C55.8129 25.354 56.0637 25.4226 56.2164 25.5593C56.3686 25.696 56.4668 25.9211 56.5162 26.2307H56.6585L56.5941 25.2075H53.401V25.354H53.9971V28.8948H53.4005V29.04H56.728L56.7651 27.757H56.6214C56.5894 28.1427 56.4861 28.4302 56.3221 28.6153Z" fill="black"/>
<path d="M70.1409 28.5876C70.0836 28.5186 70.0554 28.3663 70.0554 28.1277C70.0554 27.7086 69.9534 27.4136 69.7505 27.2374C69.5283 27.0542 69.2596 26.9321 68.9721 26.8837V26.8715C69.4132 26.7987 69.7261 26.6868 69.9102 26.5422C70.0902 26.4069 70.193 26.1955 70.1865 25.9742C70.1888 25.7914 70.1216 25.6139 69.9981 25.4757C69.8816 25.3376 69.7242 25.238 69.5471 25.191C69.3282 25.1389 69.1031 25.1145 68.8781 25.1187H66.7983V25.2639H67.3931V28.683H67.3922L66.7998 28.6825V28.822H68.6643V28.6825H68.0701V26.9236H68.4233C68.8001 26.9236 69.0421 27.0035 69.1492 27.1627C69.2497 27.3051 69.3047 27.4737 69.308 27.6466L69.2957 28.1164C69.3 28.2973 69.3662 28.472 69.4837 28.6125C69.611 28.7821 69.8304 28.8671 70.1418 28.8671C70.3044 28.8657 70.465 28.8375 70.6173 28.7835V28.6487C70.5402 28.6717 70.4608 28.6853 70.38 28.6872C70.2893 28.691 70.2006 28.6548 70.1409 28.5876ZM68.5727 26.7949H68.0658V25.2634L68.0663 25.2639L68.7062 25.2601C68.8368 25.2573 68.9674 25.2686 69.0951 25.2944C69.1999 25.3216 69.2906 25.3879 69.3474 25.4776C69.4174 25.5772 69.4526 25.7341 69.4526 25.9498C69.4526 26.2157 69.4184 26.4083 69.3488 26.5285C69.2943 26.6375 69.1938 26.7193 69.0731 26.7512C68.9086 26.785 68.7409 26.8001 68.5727 26.7949Z" fill="black"/>
<path d="M78.9058 26.1155H79.0388C79.0961 25.8064 79.1905 25.5866 79.3192 25.4574C79.448 25.3277 79.6739 25.2633 80.0004 25.2633H80.8921L78.7151 28.6829V28.8229H81.6212L81.6851 27.609H81.547C81.5211 27.8246 81.4558 28.0346 81.3553 28.2282C81.2538 28.4297 81.1359 28.5561 81.0011 28.6068C80.8071 28.6665 80.6041 28.6923 80.4016 28.6834H79.4743L81.6851 25.2215V25.1215H78.9664L78.9058 26.1155Z" fill="black"/>
<path d="M73.9491 28.4114C73.7842 28.5909 73.4775 28.6811 73.0415 28.6811H72.2696V26.9875H72.6112C72.823 26.9875 72.98 27.0373 73.0824 27.1322C73.1848 27.2271 73.2435 27.424 73.259 27.7213H73.4075V26.1536H73.259C73.2496 26.3707 73.2116 26.5276 73.1439 26.6291C73.0951 26.715 73.0161 26.7818 72.9212 26.8146C72.8212 26.8395 72.7178 26.8508 72.614 26.8485H72.2725V25.2629H73.0795C73.4342 25.2629 73.6889 25.3259 73.8425 25.4584C73.9961 25.5899 74.0948 25.8069 74.1446 26.1057H74.2879L74.2235 25.1182H71.0007V25.2634H71.6016V28.682H71.0007V28.8211H74.3593L74.3954 27.5832H74.2503C74.2193 27.9558 74.1145 28.2325 73.9491 28.4114Z" fill="black"/>
<path d="M77.8653 28.4114C77.6985 28.5909 77.3936 28.6811 76.9558 28.6811H76.1853V26.9875H76.5264C76.7383 26.9875 76.8947 27.0373 76.9976 27.1322C77.1 27.2271 77.1587 27.424 77.1743 27.7213H77.3227V26.1536H77.1743C77.1649 26.3707 77.1268 26.5276 77.0592 26.6291C77.0103 26.715 76.9314 26.7818 76.8365 26.8146C76.7359 26.8395 76.6331 26.8508 76.5297 26.8485H76.1886V25.2629H76.9939C77.35 25.2629 77.6032 25.3259 77.7568 25.4584C77.9104 25.5899 78.0091 25.8069 78.0593 26.1057H78.2026L78.1378 25.1182H74.915V25.2634H75.5178V28.6816H74.915V28.8211H78.2736L78.3107 27.5837H78.166C78.134 27.9558 78.0316 28.2325 77.8653 28.4114Z" fill="black"/>
<path d="M65.0466 26.8874V26.8738C65.74 26.7366 66.0867 26.4491 66.0867 26.0099C66.0829 25.8821 66.0529 25.7567 65.9974 25.6406C65.9335 25.5067 65.8316 25.3935 65.7038 25.3146C65.5774 25.2291 65.4323 25.1727 65.2805 25.1506C65.1006 25.1276 64.9188 25.1168 64.7375 25.1187H62.7784V25.2638H63.3638V28.6834L63.3633 28.683L62.7784 28.6811V28.8201H64.7093C64.9103 28.8234 65.1114 28.8108 65.3101 28.7835C65.4788 28.7553 65.638 28.691 65.7776 28.5946C65.9194 28.5049 66.035 28.38 66.1116 28.2324C66.1774 28.1098 66.2131 27.9745 66.2164 27.8359C66.2159 27.3267 65.826 27.0101 65.0466 26.8874ZM64.0351 25.2634H64.6134H64.6153C64.7572 25.2596 64.8991 25.2709 65.0381 25.2972C65.1429 25.3244 65.2317 25.393 65.2834 25.4865C65.3472 25.5894 65.3792 25.7543 65.3792 25.9803C65.3792 26.2697 65.328 26.4811 65.2303 26.6159C65.1335 26.7503 64.9071 26.817 64.5552 26.817H64.0356V25.2634H64.0351ZM65.3411 28.4016C65.2754 28.5153 65.1678 28.6003 65.0395 28.6388C64.8845 28.6722 64.7257 28.6863 64.5669 28.683H64.0351V26.9574H64.5491C64.9085 26.9574 65.1504 27.0241 65.2763 27.158C65.4027 27.2919 65.4642 27.509 65.4642 27.7979C65.4642 28.0737 65.4229 28.2738 65.3411 28.4016Z" fill="black"/>
<path d="M22.9628 4.09561V1.31916C22.9628 0.865812 22.6335 0.384278 22.0228 0.384278H0.894948C0.460863 0.383808 0 0.711721 0 1.31916V4.09561C0 4.66124 0.3561 5.05633 0.866761 5.05633H8.25607C8.81794 5.05633 8.86163 5.15968 8.86163 5.30579V22.1905C8.86163 22.8322 9.16464 23.1578 9.76175 23.1578H13.1954V22.6603H9.76175C9.55457 22.6603 9.35914 22.6603 9.35914 22.1905V5.30579C9.35914 4.55882 8.55768 4.55882 8.25607 4.55882H0.866761C0.53368 4.55882 0.497976 4.23467 0.497976 4.09561V1.31916C0.497976 1.01708 0.697637 0.881784 0.895418 0.881784H22.0237C22.3277 0.881784 22.4663 1.10869 22.4663 1.31916V4.09561C22.4663 4.48319 22.3253 4.55882 22.0824 4.55882H14.4061C14.329 4.55225 14.0707 4.54755 13.8672 4.72701C13.7625 4.82003 13.637 4.99526 13.637 5.30579V19.5658H14.1345V5.30579C14.1345 5.23767 14.1449 5.147 14.1951 5.10143C14.2464 5.05492 14.3389 5.0521 14.3633 5.05445L22.081 5.05633C22.6415 5.05633 22.9628 4.70634 22.9628 4.09561Z" fill="black"/>
<path d="M91.1061 22.3028V1.34692C91.1061 0.753109 90.7209 0.383855 90.1003 0.383855H86.7948C86.1339 0.383855 85.8327 0.868677 85.8327 1.31873V8.84569C85.8327 9.08247 85.7336 9.13227 85.5847 9.13414C85.4357 9.13602 82.4122 9.13602 76.5967 9.13414H76.0301C75.9756 9.13414 75.8102 9.13414 75.8102 8.87388V1.1482C75.8102 0.733847 75.4565 0.384324 75.0374 0.384324H71.2824C70.8699 0.384324 70.5707 0.70566 70.5707 1.1482V13.7653H71.0682V1.1482C71.0682 1.10357 71.0785 0.881831 71.2824 0.881831H75.0374C75.1788 0.881831 75.3127 1.01149 75.3127 1.1482V8.87388C75.3127 9.32018 75.6078 9.63165 76.0301 9.63165H76.5967C78.7647 9.63212 85.3639 9.63447 85.5917 9.63165C86.0474 9.62554 86.3307 9.32441 86.3307 8.84569V1.3192C86.3307 1.21679 86.3641 0.881831 86.7953 0.881831H90.1008C90.6091 0.881831 90.6091 1.23229 90.6091 1.34739V22.3033C90.6091 22.6011 90.4916 22.6608 90.3023 22.6608H86.6971C86.6934 22.6608 86.3312 22.6566 86.3312 22.3033V14.2304C86.3312 13.7052 85.9328 13.3087 85.4052 13.3087H76.1809C75.6115 13.3087 75.3137 13.7771 75.3137 14.2398V22.3869C75.3137 22.572 75.2681 22.6598 75.0102 22.6598H71.3219C71.0687 22.6598 71.0687 22.4541 71.0687 22.3869V18.7897C71.0687 18.7897 71.0362 17.8332 70.7689 17.5706C70.5679 17.3733 70.2766 17.2873 69.8378 17.293C68.7352 17.3132 68.3772 17.743 66.911 19.5386H66.9091C64.9201 21.8739 62.2451 23.0601 58.9288 23.0601C52.2996 23.0601 47.4885 18.319 47.4885 11.7866C47.4885 5.25416 52.2996 0.513046 58.9288 0.513046C62.8455 0.513046 65.8512 2.11456 67.8619 5.27295C67.9746 5.44959 67.9826 5.54308 67.9695 5.58959C67.9535 5.6469 67.8826 5.692 67.8262 5.72019C67.6956 5.78455 67.4259 5.91515 67.0999 6.07394C66.2463 6.48829 65.0774 7.0558 64.8665 7.17184C64.6922 7.26767 64.393 7.30338 64.2797 7.11452C63.1118 5.30442 61.1115 4.22391 58.9288 4.22391C54.9028 4.22391 51.867 7.47532 51.867 11.7866C51.867 16.0983 54.9028 19.3497 58.9288 19.3497C61.0889 19.3497 63.07 18.3011 64.2285 16.5451C64.2563 16.5028 64.3201 16.4135 64.3977 16.3468L64.0101 16.0311C63.9415 16.0992 63.8748 16.1772 63.8132 16.2707C62.7468 17.8868 60.9207 18.8517 58.9288 18.8517C55.1865 18.8517 52.3645 15.8141 52.3645 11.7861C52.3645 7.75813 55.1865 4.72095 58.9288 4.72095C60.9414 4.72095 62.7858 5.71643 63.8569 7.37619C64.1148 7.80887 64.6946 7.8333 65.1061 7.60733C65.3058 7.4974 66.5159 6.90969 67.3169 6.52071C67.6444 6.36192 67.9145 6.23038 68.0456 6.16602C68.2603 6.06031 68.3956 5.91186 68.4486 5.72348C68.5374 5.40684 68.3448 5.10429 68.2819 5.00517C66.172 1.69551 63.0254 0.0164795 58.9274 0.0164795C55.6633 0.0164795 52.6595 1.17545 50.4684 3.27963C48.2252 5.43409 46.9896 8.45577 46.9896 11.7875C46.9896 15.1193 48.2252 18.1409 50.4684 20.2954C52.6595 22.3996 55.6633 23.5585 58.9274 23.5585C62.3888 23.5585 65.1836 22.3211 67.2643 19.8867L67.2667 19.8886C67.3315 19.8092 67.3907 19.7368 67.4513 19.6635C67.4856 19.6217 67.5213 19.5823 67.5546 19.5395H67.5528C68.8268 17.9883 69.0514 17.806 69.8463 17.7914C70.13 17.7853 70.3212 17.8299 70.4194 17.9267C70.5387 18.0437 70.5707 18.7503 70.5707 18.7503V22.3874C70.5707 22.9196 70.9475 23.1578 71.3214 23.1578H75.0097C75.5185 23.1578 75.8107 22.8769 75.8107 22.3874V14.2398C75.8107 14.1675 75.8286 13.8062 76.1804 13.8062H85.4047C85.6993 13.8062 85.8332 14.0261 85.8332 14.2304V22.3028C85.8332 22.9257 86.3631 23.1578 86.6967 23.1578H90.3018C90.8054 23.1578 91.1061 22.8384 91.1061 22.3028Z" fill="black"/>
<path d="M135.954 22.2304C135.851 21.9481 130.911 9.136 127.976 1.52354L127.791 1.04435C127.626 0.614968 127.182 0.383362 126.85 0.383362H121.933C121.566 0.383362 121.136 0.670873 121.013 0.998316C120.945 1.17871 115.093 16.305 113.306 20.9249C113.164 21.2899 113.03 21.7014 112.865 21.9782C112.743 22.1825 112.593 22.2887 112.453 22.3112C112.203 22.353 111.891 22.1257 111.565 21.7855C111.337 21.5032 110.995 21.078 110.575 20.5538C110.561 20.535 110.547 20.5152 110.533 20.4964L110.531 20.4983C108.466 17.922 104.61 13.0841 103.172 11.2811C103.068 11.15 103.069 11.0339 103.178 10.9052L111.257 1.36334C111.491 1.08711 111.693 0.848453 111.582 0.6098C111.478 0.383832 111.19 0.383832 110.979 0.383832H106.232C105.573 0.383832 105.407 0.574096 105.12 0.971068C104.971 1.17684 102.382 4.4461 98.1944 9.71572L98.0878 9.84961C98.0826 9.85619 98.0779 9.86229 98.0728 9.8684C98.0718 9.8482 98.0713 9.82612 98.0713 9.80122C98.0718 9.43667 98.0713 4.12006 98.0713 2.05346V1.26046C98.0713 0.658188 97.5377 0.383832 97.042 0.383832H93.7319C93.2273 0.383832 92.8318 0.769059 92.8318 1.26046V22.1905C92.8318 22.4912 92.9178 22.7289 93.0869 22.8971C93.2635 23.0723 93.5144 23.1569 93.8484 23.1578C94.2318 23.1554 97.2666 23.1578 97.2976 23.1578H97.2981C97.5983 23.1578 98.0511 22.9398 98.0713 22.3394C98.0864 21.8945 98.0789 19.3332 98.0742 17.8031C98.0728 17.3301 98.0718 16.9617 98.0718 16.7964C98.0718 16.2063 98.3725 15.7957 98.3715 15.7957L99.3609 14.6166C99.4929 14.4592 99.5427 14.4409 99.5427 14.439C99.5451 14.4394 99.601 14.4554 99.725 14.6231C99.9745 14.9609 103.464 19.5681 104.954 21.5356L105.581 22.3634C105.991 22.9055 106.384 23.1583 106.819 23.1583H106.823C106.9 23.1578 107.123 23.1578 107.431 23.1578C107.9 23.1578 108.565 23.1583 109.211 23.1583V22.6608C108.565 22.6603 107.901 22.6603 107.431 22.6603C107.122 22.6603 106.898 22.6603 106.821 22.6608H106.819C106.557 22.6608 106.282 22.4653 105.978 22.0637L105.351 21.2354C103.862 19.2689 100.373 14.6631 100.126 14.3276C99.9961 14.1524 99.8152 13.9499 99.5625 13.9424C99.3163 13.9354 99.1387 14.1087 98.9804 14.2971L97.9844 15.4852C97.968 15.5073 97.5752 16.0287 97.5752 16.7969C97.5752 16.9622 97.5762 17.3315 97.5776 17.805C97.5823 19.3318 97.5898 21.887 97.5752 22.323C97.5654 22.6091 97.3953 22.6575 97.299 22.6608C97.2685 22.6608 94.2313 22.6579 93.8461 22.6608H93.8367C93.6506 22.6608 93.5167 22.6218 93.4388 22.5447C93.3669 22.4733 93.3307 22.3545 93.3307 22.191V1.26046C93.3307 1.04435 93.5036 0.881338 93.7333 0.881338H97.0434C97.0979 0.881338 97.5752 0.892143 97.5752 1.26046V2.05393C97.5752 4.12053 97.5757 9.4362 97.5752 9.80075C97.5748 9.93793 97.5743 10.3542 97.8726 10.4589C98.1597 10.5604 98.3997 10.2588 98.4786 10.1597L98.5853 10.0258C100.598 7.49268 105.304 1.5677 105.526 1.26093C105.763 0.932545 105.799 0.881808 106.233 0.881808H110.981C110.991 0.881808 111 0.881808 111.01 0.881808C110.976 0.924559 110.933 0.977175 110.878 1.04201L102.8 10.5839C102.536 10.8958 102.53 11.2721 102.784 11.5911C104.611 13.8827 108.231 18.4233 110.182 20.8572C110.901 21.8311 111.642 22.8134 112.396 22.8134C112.442 22.8134 112.488 22.8097 112.535 22.8022C113.038 22.72 113.406 22.2187 113.723 21.2359C113.737 21.1992 113.752 21.1603 113.767 21.1222H113.764C115.542 16.5272 121.409 1.36287 121.48 1.17355C121.521 1.06362 121.757 0.880868 121.935 0.880868H126.851C126.996 0.880868 127.242 0.999725 127.328 1.22334L127.513 1.70253C132.507 14.6532 135.414 22.1975 135.488 22.401C135.52 22.4888 135.497 22.5377 135.476 22.5668C135.435 22.6269 135.357 22.6593 135.305 22.6598C135.184 22.6608 134.227 22.6603 133.274 22.6598C132.321 22.6593 131.372 22.6589 131.26 22.6598C131.065 22.6617 130.948 22.6617 130.849 22.3902L129.788 19.4859L127.303 12.0994C126.654 10.2973 124.93 5.51064 124.867 5.32131C124.794 5.10333 124.611 4.96052 124.4 4.9577C124.398 4.9577 124.396 4.9577 124.395 4.9577C124.185 4.9577 123.999 5.09769 123.921 5.31568L123.845 5.52473C121.894 10.9146 120.736 14.1073 120.668 14.2849C120.577 14.5217 120.6 14.7763 120.73 14.9651C120.836 15.1202 120.998 15.209 121.176 15.209H125.896C126.378 15.209 126.458 15.442 126.484 15.5186L126.605 15.8709C126.857 16.6052 127.387 18.1513 127.507 18.4998C127.528 18.5586 127.555 18.6661 127.512 18.7263C127.471 18.7836 127.358 18.8193 127.216 18.8193H126.865C124.466 18.8184 120.002 18.8165 119.85 18.8198C119.699 18.8226 119.24 18.8315 119.008 19.4662L118.804 20.0262C118.512 20.8253 118.041 22.1214 117.939 22.3925C117.864 22.5936 117.777 22.6603 117.411 22.6603H115.488V23.1583L117.411 23.1578C117.812 23.1578 118.21 23.0864 118.405 22.5673C118.506 22.2957 118.979 20.9972 119.271 20.1962L119.475 19.6363C119.59 19.322 119.739 19.3191 119.86 19.3168C120.007 19.314 124.638 19.3159 126.864 19.3163H127.215C127.529 19.3163 127.778 19.2092 127.917 19.0147C128.007 18.8879 128.09 18.6676 127.976 18.3368C127.856 17.9882 127.326 16.4431 127.075 15.7093L126.954 15.3569C126.871 15.1159 126.623 14.7115 125.895 14.7115H121.175C121.164 14.7115 121.151 14.7007 121.139 14.6833C121.11 14.6415 121.093 14.5621 121.131 14.4634C121.226 14.2168 123.165 8.86305 124.312 5.69433L124.388 5.48527C124.389 5.48104 124.391 5.47681 124.392 5.47353C124.393 5.47494 124.394 5.47681 124.394 5.47869C124.451 5.65158 125.728 9.19801 126.832 12.2629L129.317 19.6508L130.381 22.5612C130.6 23.1611 131.045 23.1587 131.262 23.1578C131.374 23.1569 132.322 23.1573 133.273 23.1578C134.228 23.1583 135.186 23.1587 135.308 23.1578C135.529 23.1564 135.756 23.0366 135.884 22.8515C136.009 22.6702 136.034 22.4498 135.954 22.2304Z" fill="black"/>
<path d="M33.812 0C26.9334 0 21.9409 4.95064 21.9409 11.771C21.9409 16.4088 24.2767 20.3348 28.1891 22.2732C28.6824 22.5175 30.0391 23.0558 30.1242 23.0883C30.2087 23.1207 30.2914 23.1526 30.3718 23.186C31.5951 23.6844 32.094 24.227 32.094 25.0585C32.094 25.3301 32.0823 24.7104 32.0677 26.3054C32.0447 28.7976 32.0132 27.2313 32.0132 28.3898C32.0132 28.6449 32.0099 28.8906 32.0061 29.1236C31.9897 30.2953 31.9775 30.9065 32.4073 31.3424C32.5868 31.5243 32.8292 31.6163 33.1289 31.6163C33.3662 31.6163 33.563 31.5379 33.7148 31.3828C34.1207 30.969 34.1033 30.3244 34.0817 29.2105C34.077 28.9705 33.983 26.9842 33.9764 25.9394C34.4284 26.4003 35.2698 26.4623 35.5272 26.5022C35.7001 26.529 35.8664 26.5558 36.0243 26.5854C36.0252 27.4253 36.0285 28.3245 36.0327 29.2354C36.0205 30.6894 35.9759 30.8595 36.4053 31.2955C36.5847 31.4773 36.8271 31.5694 37.1268 31.5694C37.3641 31.5694 37.5609 31.4909 37.7127 31.3359C38.1186 30.922 38.1012 30.5123 38.0796 29.3985C38.0749 29.1584 38.0697 28.5322 38.0692 28.2761C38.066 27.2172 38.0744 27.9275 38.0711 27.5038C38.0655 26.7042 37.2575 26.3655 36.5213 26.1818C36.5213 26.0042 36.5213 25.8295 36.5213 25.6589C36.7679 25.7411 37.0752 25.7487 37.2993 25.6918C37.7014 25.5899 37.9523 25.3028 37.9537 24.9439C37.9551 24.5765 37.9494 24.0363 37.9405 23.2358C37.9311 22.3803 37.9184 20.5692 37.9086 19.0133C37.894 16.7987 37.9015 15.5946 37.9062 14.4827C37.9076 14.1425 37.9086 13.878 37.9086 13.7037C37.9086 13.5858 37.8766 13.4876 37.8137 13.4125C37.7423 13.327 37.638 13.28 37.5196 13.28C36.8887 13.28 35.4051 14.5503 35.4051 16.8029C35.4051 17.7209 35.4412 18.4242 35.5018 18.9381C35.5568 19.4051 35.6047 19.8082 35.5164 19.9106C35.4831 19.9491 35.3867 19.9731 35.2449 19.9773C34.8554 19.9895 34.7192 19.9844 34.2701 19.9806C34.0845 19.9787 33.9196 19.9773 33.7956 19.9773C33.711 19.9773 33.6481 19.9599 33.6307 19.9322C33.6053 19.8909 33.6161 19.7875 33.6546 19.7105C33.7392 19.5409 33.8994 19.4164 34.069 19.2853C34.3387 19.0772 34.6736 18.8179 34.7196 18.3105C34.7389 18.1014 34.8498 13.3383 34.5585 13.0371L34.4711 12.9511L34.3574 12.9577C33.9619 12.9807 33.7669 13.505 33.7054 14.71C33.695 14.9097 33.6866 15.1375 33.6777 15.3757C33.6532 16.033 33.6091 17.2187 33.4888 17.5363C33.4855 17.5349 33.4827 17.533 33.4803 17.5311C33.4733 17.525 33.4132 17.4649 33.4113 17.2117C33.4089 16.8415 33.4103 15.3649 33.4113 14.9957C33.4146 13.2833 33.2337 12.9577 32.8983 12.9558C32.6361 12.954 32.4313 13.0996 32.3444 15.0055C32.319 15.5557 32.343 17.1163 32.3444 17.1652C32.3345 17.3399 32.273 17.5208 32.2251 17.5617C32.1391 17.456 32.0489 17.0148 32.0738 15.5782C32.1039 13.8452 32.0752 13.2715 31.8408 13.0578C31.7661 12.9897 31.6707 12.9587 31.5716 12.969C31.3127 12.9981 31.1084 13.0207 31.0003 16.6038C30.9966 16.7221 30.9909 16.8532 30.9848 16.9899C30.9463 17.8473 30.9341 18.4294 31.1074 18.6981C31.199 18.8399 31.3564 18.9612 31.5392 19.1016C31.6811 19.2106 31.8276 19.3234 31.9319 19.4403C31.9968 19.5132 32.0376 19.5794 32.0531 19.6372L32.5337 19.508C32.4975 19.3727 32.4219 19.2421 32.3035 19.1091C32.1682 18.9574 31.9953 18.8244 31.8431 18.7075C31.7158 18.6093 31.5711 18.4984 31.5265 18.4284C31.4264 18.2729 31.4631 17.4531 31.4828 17.0125C31.4894 16.8734 31.495 16.74 31.4988 16.6193C31.5237 15.7905 31.5551 15.1732 31.5871 14.7133C31.5866 15.0234 31.5815 15.332 31.5772 15.5697C31.5505 17.1247 31.6317 17.7031 31.9108 17.9492C32.0165 18.0422 32.1476 18.0808 32.289 18.0601C32.7869 17.9882 32.8381 17.2727 32.8424 17.1745C32.8419 17.1586 32.8175 15.5627 32.8419 15.0281C32.8574 14.6851 32.8767 14.4131 32.8969 14.197C32.9081 14.4051 32.9152 14.6668 32.9147 14.9947C32.9138 15.3644 32.9124 16.8438 32.9147 17.2149C32.9166 17.5405 32.9946 17.7665 33.1529 17.9055C33.2384 17.9802 33.3897 18.0634 33.6232 18.0343C34.022 17.9845 34.0995 17.4268 34.1752 15.3945C34.1841 15.1582 34.1925 14.9332 34.2024 14.7354C34.2099 14.5846 34.2198 14.4517 34.2306 14.3333C34.2738 15.6186 34.2752 17.7021 34.224 18.2654C34.1987 18.543 34.0328 18.684 33.7641 18.8921C33.5668 19.0448 33.3436 19.2177 33.2083 19.4901C33.1186 19.671 33.0641 19.9646 33.2074 20.1953C33.2868 20.3231 33.4531 20.4753 33.7951 20.4753C33.9182 20.4753 34.0817 20.4767 34.2654 20.4786C34.7192 20.4828 34.8606 20.4875 35.2599 20.4753C35.4483 20.4692 35.7184 20.4382 35.8927 20.2357C36.1234 19.9674 36.075 19.5583 35.9951 18.8804C35.9359 18.3791 35.9016 17.6923 35.9016 16.8039C35.9016 14.9867 36.9728 14.0608 37.4106 13.8188C37.4101 13.9861 37.4092 14.2097 37.4083 14.4817C37.4036 15.5951 37.396 16.8001 37.4106 19.0175C37.4209 20.5744 37.4336 22.3859 37.443 23.2423C37.4515 24.0391 37.4576 24.5775 37.4562 24.9425C37.4552 25.1206 37.2603 25.1891 37.1766 25.2108C36.9901 25.2577 36.7158 25.2328 36.5222 25.1173C36.5241 24.5258 36.5279 23.9898 36.534 23.5331C36.5457 22.6786 36.4771 21.6122 36.0839 21.3853C35.9707 21.32 35.8359 21.3209 35.7236 21.3876C35.3525 21.6089 35.3374 22.5071 35.3478 22.883C35.3882 24.3116 35.6052 24.7067 35.8006 25.0628C35.8631 25.1765 35.9388 25.2747 36.0233 25.3583C36.0228 25.5918 36.0224 25.8328 36.0224 26.0799C35.8781 26.0545 35.7367 26.0329 35.6019 26.0117C35.3539 25.9732 34.4561 25.9972 33.9732 25.122C33.9741 24.5963 33.9807 24.1293 33.9948 23.7488C34.084 21.972 33.7322 21.7489 33.6166 21.6756C33.4977 21.6004 33.3591 21.5943 33.2356 21.6606C33.0406 21.7644 32.9138 22.0392 32.9049 22.3798C32.8818 23.7032 33.1266 24.6221 33.4756 25.2596C33.5114 26.482 33.5785 28.9785 33.5832 29.2213C33.6011 30.1388 33.6185 30.7707 33.3587 31.0357C33.3201 31.0747 33.2591 31.1198 33.128 31.1198C32.91 31.1198 32.8137 31.0479 32.7606 30.9939C32.4769 30.7063 32.4891 30.1027 32.5027 29.1316C32.506 28.8958 32.5093 28.6482 32.5093 28.3903C32.5093 27.2337 32.5408 28.332 32.5638 25.8407C32.5783 24.2444 32.5901 24.8631 32.5901 24.5892C32.5901 23.2625 31.5627 23.1352 30.5583 22.7256C30.4742 22.6913 30.3882 22.6575 30.2999 22.6236C30.2158 22.5917 28.8863 22.0641 28.4085 21.8273C24.669 19.9745 22.4365 16.2152 22.4365 11.771C22.4365 5.23862 27.2199 0.497507 33.8101 0.497507C40.4201 0.497507 45.2176 5.23862 45.2176 11.771C45.2176 15.815 43.3896 19.283 40.203 21.2861L40.1781 21.3021C39.9216 21.4698 39.7962 21.4656 39.7361 21.4337C39.6811 21.4041 39.5026 21.2476 39.5026 20.4743L39.4885 19.9355C39.472 19.3252 39.4565 18.7493 39.4603 18.0009C39.4866 17.1163 39.7112 16.8429 39.8319 16.6958C40.9345 15.3546 41.5175 13.6516 41.5175 11.7715C41.5175 7.35878 38.2788 4.15622 33.8167 4.15622C29.3673 4.15622 26.1375 7.35878 26.1375 11.7715C26.1375 14.2426 27.1344 16.3797 28.9445 17.789C28.9784 17.8153 29.0122 17.8412 29.0465 17.8665L29.0718 17.8858C29.7314 18.3847 30.1016 18.0996 30.2303 17.9539C30.6081 17.5255 30.5338 16.5065 30.2036 16.1683C30.0288 15.9822 29.8757 15.8263 29.7502 15.6985C29.6116 15.5571 29.5026 15.4457 29.4463 15.3776C28.6401 14.3995 28.2145 13.1527 28.2145 11.7715C28.2145 8.55298 30.5714 6.21719 33.8191 6.21719C36.4922 6.21719 37.9095 7.83232 37.9236 7.84877L38.1129 7.68716L38.3023 7.52602C38.2393 7.45226 36.7313 5.71968 33.8191 5.71968C30.2834 5.71968 27.717 8.265 27.717 11.7715C27.717 13.2697 28.1821 14.6259 29.0624 15.6938C29.132 15.7783 29.2424 15.8906 29.3951 16.0466C29.5186 16.1725 29.6689 16.3261 29.8446 16.5121C29.9959 16.6672 30.0598 17.3949 29.8573 17.6246C29.7559 17.7392 29.5374 17.6143 29.372 17.4888L29.3457 17.4691C29.3138 17.4451 29.2818 17.4212 29.2504 17.3963C27.5638 16.0832 26.6351 14.0852 26.6351 11.771C26.6351 7.64676 29.6553 4.65326 33.8167 4.65326C37.9903 4.65326 41.02 7.64676 41.02 11.771C41.02 13.5346 40.476 15.1281 39.4476 16.3797C39.3006 16.5587 38.9943 16.9312 38.9628 17.992C38.959 18.7544 38.9745 19.3346 38.9914 19.9487L39.0055 20.48C39.0055 21.2354 39.1671 21.6906 39.4998 21.8706C39.76 22.0115 40.0804 21.9603 40.4506 21.7183L40.468 21.7071C43.803 19.6113 45.7155 15.9897 45.7155 11.771C45.7169 4.95064 40.7099 0 33.812 0ZM36.503 29.3191C36.5063 29.0832 36.51 28.4598 36.51 28.2019C36.51 27.6029 36.5241 27.4338 36.5232 26.6967C37.0738 26.848 37.5722 27.0739 37.5755 27.5071C37.5793 28.0417 37.5703 27.3267 37.5736 28.2775C37.5746 28.5369 37.5793 29.1654 37.584 29.4083C37.6018 30.3258 37.6192 30.7228 37.3594 30.9878C37.3209 31.0267 37.2598 31.0718 37.1287 31.0718C36.9107 31.0718 36.8144 31 36.7614 30.9459C36.4771 30.6589 36.4889 30.2901 36.503 29.3191ZM35.8471 22.8679C35.8354 22.4573 35.872 22.1844 35.9129 22.0171C35.9801 22.2591 36.0492 22.7232 36.0379 23.5256C36.0346 23.7784 36.0318 24.0551 36.0299 24.352C35.9411 24.0635 35.8688 23.6304 35.8471 22.8679ZM33.5001 23.7262C33.4996 23.7375 33.4991 23.7492 33.4987 23.7605C33.4305 23.3692 33.3953 22.9158 33.4047 22.3897C33.4061 22.3394 33.4113 22.2948 33.4188 22.2563C33.4771 22.4559 33.5424 22.8764 33.5001 23.7262Z" fill="black"/>
</svg>
